<?xml version="1.0" encoding="utf-8"?>
<!-- Generator: Adobe Illustrator 26.0.0, SVG Export Plug-In . SVG Version: 6.00 Build 0)  -->
<svg version="1.1" id="Capa_1" xmlns="http://www.w3.org/2000/svg" xmlns:xlink="http://www.w3.org/1999/xlink" x="0px" y="0px"
	 viewBox="0 0 500 500" style="enable-background:new 0 0 500 500;" xml:space="preserve">
<style type="text/css">
	.st0{fill:#CAD1EA;}
	.st1{fill:#051C2C;}
</style>
<g>
	<path class="st0" d="M253.3,146.83v260.12H85.32V137.27h139.96c0.26,0.02,0.52,0.04,0.78,0.06c8.45,0.79,15.7,4.53,21.92,10.21
		c1.54,1.41,2.61,1.78,4.34,0.17C252.64,147.41,252.97,147.12,253.3,146.83z"/>
	<path class="st1" d="M420.26,161.01c-2.12,0.04-2.72-0.56-2.67-2.68c0.14-5.85-0.15-11.71,0.13-17.55
		c0.15-3.14-0.74-3.82-3.83-3.81c-43.96,0.11-87.92,0.19-131.88-0.01c-10.94-0.05-20.56,2.77-28.7,9.87
		c-0.33,0.29-0.65,0.58-0.98,0.88c-1.73,1.61-2.8,1.23-4.34-0.17c-6.22-5.68-13.47-9.42-21.92-10.21c-0.26-0.03-0.52-0.05-0.78-0.06
		c-4.56-0.37-9.18-0.2-13.77-0.22c-2.73-0.01-4.67-0.01-6.04,0.22c-3.37,0.56-3.29,2.54-3.13,9.36c0.05,2.05,0.7,2.45,2.55,2.41
		c4.73-0.11,9.48,0.15,14.2-0.07c9.21-0.45,16.66,3.02,23.08,9.41c1.57,1.55,2.12,3.04,2.12,5.18
		c-0.05,64.13-0.04,128.28-0.07,192.42c0,1.02,0.49,2.19-0.61,3.28c-8.14-5.87-17.41-7.07-27.2-7.03
		c-39.47,0.16-78.95,0.05-118.43,0.09c-2.07,0.01-3.29,0.04-3.28-2.81c0.1-65.88,0.09-131.76,0.03-197.65c0-2.22,0.4-3.07,2.81-2.91
		c2.94,0.18,6.98,1.02,8.59-0.5c1.92-1.81,0.34-5.87,0.63-8.93c0.11-1.2-0.08-1.9-0.73-2.24c-0.39-0.21-0.94-0.29-1.71-0.27
		c-6.35,0.14-12.7,0.12-19.05,0.01c-1.91-0.04-2.55,0.44-2.51,2.45c0.14,6.35-0.03,12.7,0.09,19.05c0.04,1.92-0.46,2.54-2.46,2.5
		c-5.85-0.14-11.71,0.17-17.55-0.13c-3.26-0.16-4.03,0.7-4.03,4c0.11,85.06,0.11,170.13,0.01,255.19c0,3.16,0.58,4.08,3.96,4.07
		c47.94-0.14,95.9,0.11,143.84-0.25c10.71-0.08,19.47,3.01,26.87,10.46c1.24,1.24,2.55,1.71,4.29,1.69
		c7.97-0.08,15.94-0.11,23.92,0.01c2.39,0.04,4.16-0.56,5.93-2.28c6.87-6.7,14.92-9.91,24.84-9.85
		c49.69,0.27,99.37,0.13,149.07,0.13V160.96C434.45,160.96,427.35,160.88,420.26,161.01z M402.23,388.22
		c-39.95-0.08-79.9,0.04-119.84-0.13c-9.31-0.04-17.94,1.63-26.19,7.48c0-6.55,0.01-12.27-0.01-17.99c0-1.01,0.05-1.9,0.84-2.71
		c5.97-6.25,12.81-10.61,21.79-10.61c41.32-0.01,82.64,0.03,123.95-0.07c2.61-0.01,3,0.88,2.94,3.15
		c-0.14,5.85-0.25,11.7,0.04,17.54C405.9,387.84,404.86,388.22,402.23,388.22z M258.78,157.86c6.26-5.91,13.38-8.97,22.17-8.93
		c40.33,0.16,80.67,0.12,121.01-0.01c3.16-0.01,3.79,0.81,3.78,3.86c-0.09,65.23-0.09,130.47,0,195.71c0,3.01-0.55,3.9-3.76,3.88
		c-39.09-0.13-78.18,0.03-117.28-0.15c-10.02-0.05-19.55,0.94-28.5,7.56v-4.58c0-63.75,0.02-127.49-0.05-191.24
		C256.14,161.36,256.92,159.62,258.78,157.86z M94.73,367.16c-0.05-2.12,0.25-2.99,2.75-2.98c41.46,0.1,82.92,0.08,124.39,0.07
		c9.03,0,15.72,4.72,21.8,10.71c0.62,0.61,0.57,1.33,0.57,2.06v18.6c-8.38-6.07-17.2-7.57-26.65-7.53
		c-39.59,0.15-79.19,0.01-118.78,0.16c-3.56,0.01-4.26-1.07-4.11-4.29C94.97,378.37,94.87,372.76,94.73,367.16z M425.89,412.16
		c-45.2-0.12-90.41,0.01-135.62-0.15c-10.99-0.05-20.54,3.09-28.68,10.43c-1.29,1.16-2.58,1.8-4.33,1.61
		c-1.11-0.12-2.24-0.08-3.36-0.01c-7.65,0.5-14.56-0.14-20.93-5.79c-5.77-5.12-13.62-6.2-21.42-6.2
		c-45.57,0.05-91.16-0.01-136.74,0.11c-3.21,0.01-4.05-0.65-4.04-3.99c0.11-77.09,0.11-154.18,0.01-231.28
		c0-3.14,0.54-4.2,3.96-4.08c8.06,0.3,8.07,0.09,8.07,8.09c0,71.74,0.03,143.48-0.06,215.22c-0.01,2.63,0.35,3.75,2.56,4.02
		c0.39,0.05,0.84,0.07,1.36,0.07c43.34-0.15,86.68,0.07,130.02-0.23c8.45-0.06,15.55,2.22,21.81,6.96c1.17,0.89,2.32,1.86,3.43,2.92
		c3.47,3.3,13.13,3.21,16.66-0.08c7.01-6.56,14.97-9.87,24.89-9.8c43.47,0.3,86.92,0.09,130.39,0.21c3.09,0,3.83-0.7,3.83-3.81
		c-0.1-73.1-0.05-146.22-0.15-219.32c-0.01-3.31,0.69-4.37,4.16-4.24c7.86,0.29,7.87,0.09,7.87,7.92v112.09
		c0,38.49-0.04,76.97,0.07,115.45C429.67,411.3,429.1,412.17,425.89,412.16z"/>
	<path class="st1" d="M190.44,269.02c-8.75-6.99-16.97-13.54-25.18-20.11c-2.53-2.02-5.21-3.88-7.52-6.11
		c-2.21-2.13-3.73-2.17-6.2-0.13c-10.62,8.78-21.46,17.3-32.26,25.94c-1.05-1.06-0.55-2.22-0.55-3.24
		c-0.03-45.55,0-91.1-0.08-136.66c0-2.75,0.46-3.73,3.53-3.71c21.65,0.16,43.31,0.12,64.96,0.03c2.42-0.01,3.38,0.3,3.38,3.11
		C190.41,174.81,190.44,221.48,190.44,269.02z M178.2,243.94c0.17-0.74,0.26-0.97,0.26-1.19c0.01-34.35-0.02-68.71,0.08-103.06
		c0.01-2.6-1.04-2.68-3.04-2.67c-13.69,0.07-27.38,0.13-41.07-0.04c-3.03-0.04-3.88,0.6-3.87,3.78c0.14,33.23,0.08,66.47,0.08,99.7
		c0,1.05,0,2.1,0,3.72c7.43-5.92,14.38-11.31,21.14-16.93c2.06-1.71,3.33-1.94,5.51-0.11C164.04,232.8,171.01,238.19,178.2,243.94z"
		/>
	<path class="st0" d="M256.21,359.77c0-2.12,0-3.35,0-4.58c0-63.75,0.02-127.49-0.06-191.24c0-2.6,0.78-4.34,2.64-6.1
		c6.25-5.92,13.38-8.97,22.17-8.93c40.34,0.16,80.67,0.11,121.01-0.01c3.16-0.01,3.79,0.81,3.78,3.85
		c-0.1,65.24-0.1,130.48,0,195.72c0,3.01-0.55,3.89-3.76,3.88c-39.09-0.13-78.18,0.02-117.28-0.16
		C274.69,352.17,265.15,353.16,256.21,359.77z M333.93,208.79c13.08,0,26.15,0,39.23,0c8.64,0,8.5,0,8.68-8.6
		c0.06-2.81-0.67-3.45-3.45-3.43c-27.77,0.12-55.54,0.07-83.31,0.07c-9.08,0-8.98,0-9.04,8.97c-0.02,2.45,0.64,3.07,3.07,3.05
		C304.04,208.73,318.99,208.79,333.93,208.79z M333.93,232.71c13.08,0,26.15,0,39.23,0c8.64,0,8.5,0,8.68-8.6
		c0.06-2.81-0.68-3.44-3.45-3.43c-27.77,0.12-55.54,0.07-83.31,0.07c-9.08,0-8.98,0-9.04,8.97c-0.02,2.45,0.64,3.06,3.07,3.05
		C304.04,232.65,318.99,232.71,333.93,232.71z M333.66,256.62c13.33,0,26.65,0,39.98,0c8.13,0,7.98,0,8.2-7.95
		c0.08-3.1-0.47-4.13-3.92-4.11c-27.89,0.18-55.79,0.1-83.69,0.1c-8.13,0-7.98,0-8.2,7.95c-0.09,3.1,0.46,4.17,3.93,4.11
		C304.52,256.48,319.09,256.62,333.66,256.62z M333.93,280.54c13.08,0,26.15,0,39.23,0c8.64,0,8.5,0,8.67-8.6
		c0.06-2.82-0.68-3.44-3.45-3.43c-27.77,0.12-55.54,0.07-83.31,0.07c-9.08,0-8.98,0-9.04,8.97c-0.02,2.45,0.65,3.06,3.07,3.04
		C304.04,280.48,318.99,280.54,333.93,280.54z M298.06,298.13c0-5.64,0-5.64-5.57-5.64c-6.38,0-6.38,0-6.38,6.32
		c0,5.64,0,5.64,5.57,5.64C298.06,304.46,298.06,304.46,298.06,298.13z M321.97,298.79c0-6.3,0-6.3-6.41-6.3
		c-5.55,0-5.55,0-5.55,5.66c0,6.3,0,6.3,6.41,6.3C321.97,304.46,321.97,304.46,321.97,298.79z M345.89,298.82
		c0-6.32,0-6.32-6.38-6.32c-5.57,0-5.57,0-5.57,5.64c0,6.32,0,6.32,6.38,6.32C345.89,304.46,345.89,304.46,345.89,298.82z"/>
	<path class="st0" d="M429.59,292.83c0,38.48-0.04,76.97,0.07,115.45c0.01,3.01-0.57,3.88-3.76,3.88
		c-45.21-0.12-90.41,0.01-135.62-0.15c-10.99-0.04-20.54,3.09-28.68,10.44c-1.29,1.16-2.58,1.8-4.33,1.61
		c-1.11-0.12-2.24-0.08-3.36-0.01c-7.64,0.5-14.56-0.14-20.93-5.79c-5.77-5.12-13.62-6.21-21.42-6.2
		c-45.58,0.05-91.16-0.01-136.74,0.1c-3.21,0.01-4.05-0.65-4.04-3.98c0.11-77.09,0.11-154.19,0.01-231.28
		c0-3.15,0.54-4.21,3.95-4.08c8.07,0.3,8.08,0.09,8.08,8.09c0,71.74,0.02,143.47-0.07,215.21c0,3.11,0.5,4.1,3.93,4.09
		c43.34-0.15,86.68,0.08,130.02-0.22c10.04-0.07,18.15,3.15,25.24,9.88c3.47,3.29,13.13,3.22,16.66-0.08
		c7.01-6.56,14.97-9.87,24.9-9.8c43.46,0.3,86.93,0.09,130.39,0.21c3.09,0.01,3.83-0.69,3.83-3.81
		c-0.1-73.11-0.05-146.21-0.15-219.32c0-3.31,0.69-4.37,4.16-4.24c7.86,0.29,7.87,0.09,7.87,7.92
		C429.59,218.11,429.59,255.47,429.59,292.83z"/>
	<path class="st0" d="M244.25,395.62c-8.38-6.08-17.2-7.57-26.65-7.53c-39.59,0.16-79.19,0.01-118.78,0.16
		c-3.56,0.01-4.25-1.07-4.1-4.29c0.26-5.59,0.16-11.21,0.03-16.81c-0.05-2.12,0.25-2.98,2.75-2.98c41.46,0.1,82.93,0.08,124.39,0.07
		c9.03,0,15.72,4.72,21.8,10.71c0.62,0.61,0.58,1.33,0.58,2.07C244.25,383,244.25,388.96,244.25,395.62z"/>
	<path class="st0" d="M256.21,395.57c0-6.55,0.01-12.27-0.01-17.99c0-1,0.05-1.89,0.84-2.72c5.96-6.24,12.81-10.61,21.79-10.61
		c41.32-0.01,82.63,0.02,123.95-0.07c2.61-0.01,3,0.88,2.95,3.15c-0.14,5.85-0.25,11.71,0.04,17.54c0.14,2.97-0.9,3.35-3.53,3.35
		c-39.95-0.08-79.89,0.03-119.84-0.13C273.08,388.05,264.45,389.72,256.21,395.57z"/>
	<path class="st0" d="M178.2,243.94c-7.19-5.75-14.17-11.14-20.9-16.81c-2.18-1.84-3.46-1.6-5.51,0.11
		c-6.76,5.62-13.71,11.01-21.14,16.93c0-1.62,0-2.67,0-3.72c0-33.23,0.05-66.47-0.08-99.7c-0.01-3.18,0.83-3.82,3.87-3.78
		c13.69,0.18,27.38,0.11,41.07,0.04c2-0.01,3.05,0.07,3.04,2.67c-0.1,34.35-0.07,68.71-0.08,103.06
		C178.47,242.97,178.37,243.2,178.2,243.94z M160.55,167.13c0-6.18,0-6.18-6.16-6.18c-5.8,0-5.8,0-5.8,5.78c0,6.18,0,6.18,6.15,6.18
		C160.55,172.92,160.55,172.92,160.55,167.13z M154.21,196.83c6.34,0,6.34,0,6.34-6.36c0-5.59,0-5.59-5.62-5.59
		c-6.34,0-6.34,0-6.34,6.36C148.59,196.83,148.59,196.83,154.21,196.83z"/>
	<path class="st1" d="M333.93,208.79c-14.94,0-29.89-0.06-44.83,0.06c-2.43,0.02-3.08-0.6-3.07-3.05c0.06-8.97-0.04-8.97,9.04-8.97
		c27.77,0,55.54,0.05,83.31-0.07c2.78-0.01,3.51,0.62,3.45,3.43c-0.17,8.59-0.04,8.6-8.68,8.6
		C360.08,208.79,347.01,208.79,333.93,208.79z"/>
	<path class="st1" d="M333.93,232.71c-14.94,0-29.89-0.06-44.83,0.06c-2.42,0.02-3.08-0.59-3.07-3.05c0.06-8.97-0.04-8.97,9.04-8.97
		c27.77,0,55.54,0.05,83.31-0.07c2.78-0.01,3.51,0.62,3.45,3.43c-0.17,8.59-0.04,8.6-8.68,8.6
		C360.08,232.71,347.01,232.71,333.93,232.71z"/>
	<path class="st1" d="M333.66,256.62c-14.57,0-29.14-0.14-43.71,0.1c-3.46,0.06-4.01-1.01-3.93-4.11c0.22-7.95,0.07-7.95,8.2-7.95
		c27.9,0,55.79,0.08,83.69-0.1c3.46-0.02,4.01,1.01,3.92,4.11c-0.22,7.95-0.07,7.95-8.2,7.95
		C360.31,256.62,346.99,256.62,333.66,256.62z"/>
	<path class="st1" d="M333.93,280.54c-14.94,0-29.89-0.06-44.83,0.06c-2.42,0.02-3.08-0.59-3.07-3.04c0.06-8.97-0.04-8.97,9.04-8.97
		c27.77,0,55.54,0.05,83.31-0.07c2.77-0.01,3.51,0.62,3.45,3.43c-0.17,8.59-0.04,8.6-8.67,8.6
		C360.09,280.54,347.01,280.54,333.93,280.54z"/>
	<path class="st1" d="M298.06,298.13c0,6.32,0,6.32-6.38,6.32c-5.57,0-5.57,0-5.57-5.64c0-6.32,0-6.32,6.38-6.32
		C298.06,292.5,298.06,292.5,298.06,298.13z"/>
	<path class="st1" d="M321.97,298.79c0,5.66,0,5.66-5.55,5.66c-6.41,0-6.41,0-6.41-6.3c0-5.66,0-5.66,5.55-5.66
		C321.97,292.5,321.97,292.5,321.97,298.79z"/>
	<path class="st1" d="M345.89,298.82c0,5.64,0,5.64-5.57,5.64c-6.38,0-6.38,0-6.38-6.32c0-5.64,0-5.64,5.57-5.64
		C345.89,292.5,345.89,292.5,345.89,298.82z"/>
	<path class="st1" d="M160.55,167.13c0,5.78,0,5.78-5.8,5.78c-6.15,0-6.15,0-6.15-6.18c0-5.78,0-5.78,5.8-5.78
		C160.55,160.96,160.55,160.96,160.55,167.13z"/>
	<path class="st1" d="M154.21,196.83c-5.62,0-5.62,0-5.62-5.59c0-6.36,0-6.36,6.34-6.36c5.62,0,5.62,0,5.62,5.59
		C160.55,196.83,160.55,196.83,154.21,196.83z"/>
</g>
</svg>
