<?xml version="1.0" encoding="utf-8"?>
<!-- Generator: Adobe Illustrator 26.0.0, SVG Export Plug-In . SVG Version: 6.00 Build 0)  -->
<svg version="1.1" id="Capa_1" xmlns="http://www.w3.org/2000/svg" xmlns:xlink="http://www.w3.org/1999/xlink" x="0px" y="0px"
	 viewBox="0 0 500 500" style="enable-background:new 0 0 500 500;" xml:space="preserve">
<style type="text/css">
	.st0{fill:#60C2E5;}
	.st1{fill:#FFFFFF;}
</style>
<rect x="135.68" y="119.06" class="st0" width="270.8" height="280.94"/>
<polygon class="st1" points="325.99,112 113.85,112 113.85,382.8 384.65,382.8 384.65,142.37 325.99,142.37 "/>
<g>
	<path class="st0" d="M248.82,344.09c-42.49-0.14-78.63-32.43-83.31-74.44c-4.99-44.75,25.67-85.25,70.19-92.71
		c44.93-7.53,88.75,23.55,96.09,68.59c4.95,30.37-4.32,56.14-26.73,77.2c-2.25,2.11-4.31,2.26-5.85,0.57
		c-1.5-1.64-1.13-3.68,1.14-5.78c17.77-16.46,26.38-36.75,25.65-60.99c-1.01-33.49-26.18-64.04-58.91-71.45
		c-43.5-9.85-84.78,16.86-93.69,60.62c-8.32,40.86,20.04,82.58,61.07,89.94c17.8,3.2,34.71,0.78,50.74-7.61
		c0.43-0.23,0.87-0.44,1.3-0.65c2.08-1.03,3.85-0.68,4.96,1.41c1.15,2.17,0.17,3.8-1.77,4.86c-4.45,2.42-9.07,4.47-13.88,6.08
		C267.06,342.66,258.05,344.06,248.82,344.09z"/>
	<path class="st0" d="M184.71,259.87c-0.23-34.88,28.57-64.02,63.55-64.3c35.88-0.28,64.99,28.32,65.29,64.13
		c0.29,35.05-28.59,64.49-63.5,64.72C213.69,324.67,184.95,296.28,184.71,259.87z M191.75,259.85
		c-0.19,31.53,25.32,57.27,57.03,57.55c31.41,0.27,57.55-25.52,57.73-56.95c0.18-31.47-25.43-57.66-56.54-57.84
		C217.67,202.42,191.94,227.72,191.75,259.85z"/>
	<path class="st0" d="M254.12,240.75c-3.02,0-6.05-0.04-9.07,0.01c-4.95,0.08-8.41,3.33-8.42,7.83c-0.02,4.52,3.43,7.79,8.36,7.88
		c2.73,0.05,5.46,0.01,8.19,0.04c8.36,0.1,14.8,5.91,15.32,13.83c0.52,8.06-5.24,14.93-13.55,15.82c-1.91,0.2-2.42,0.69-2.33,2.53
		c0.15,2.92,0.06,5.85,0.03,8.78c-0.02,2.34-0.96,4.1-3.53,4.11c-2.55,0.01-3.53-1.65-3.51-4.06c0.03-2.83-0.13-5.67,0.05-8.49
		c0.13-2.09-0.33-2.98-2.65-2.79c-2.81,0.23-5.65,0.07-8.48,0.05c-2.36-0.02-4.07-1-4.05-3.56c0.02-2.57,1.72-3.48,4.1-3.47
		c5.95,0.02,11.9,0.03,17.85,0c5.35-0.02,9.01-3.24,9.02-7.86c0.01-4.63-3.62-7.81-8.99-7.86c-2.54-0.02-5.07-0.02-7.61-0.05
		c-8.23-0.09-14.59-5.85-15.1-13.66c-0.54-8.27,4.99-15.1,13.31-15.94c2.27-0.23,2.71-0.89,2.59-2.92
		c-0.17-2.82-0.02-5.66-0.05-8.49c-0.02-2.42,0.98-4.06,3.53-4.03c2.57,0.02,3.49,1.79,3.5,4.13c0.02,3.12,0.07,6.25-0.02,9.37
		c-0.04,1.38,0.35,1.87,1.78,1.82c3.02-0.1,6.05-0.07,9.07-0.02c2.71,0.04,4.55,1.56,4.31,3.67c-0.28,2.46-1.88,3.42-4.29,3.37
		C260.36,240.7,257.24,240.75,254.12,240.75z"/>
</g>
</svg>
