<?xml version="1.0" encoding="utf-8"?>
<!-- Generator: Adobe Illustrator 26.0.0, SVG Export Plug-In . SVG Version: 6.00 Build 0)  -->
<svg version="1.1" id="Capa_1" xmlns="http://www.w3.org/2000/svg" xmlns:xlink="http://www.w3.org/1999/xlink" x="0px" y="0px"
	 viewBox="0 0 500 500" style="enable-background:new 0 0 500 500;" xml:space="preserve">
<style type="text/css">
	.st0{fill:#60C2E5;}
	.st1{fill:#FFFFFF;}
	.st2{fill:none;stroke:#60C2E5;stroke-width:11;stroke-miterlimit:10;}
</style>
<rect x="135.68" y="119.06" class="st0" width="270.8" height="280.94"/>
<polygon class="st1" points="325.99,112 113.85,112 113.85,382.8 384.65,382.8 384.65,142.37 325.99,142.37 "/>
<g>
	<path class="st0" d="M248.83,164.5c31.43,0,57,25.57,57,57s-25.57,57-57,57s-57-25.57-57-57S217.4,164.5,248.83,164.5
		 M248.83,153.5c-37.56,0-68,30.44-68,68s30.44,68,68,68s68-30.44,68-68S286.39,153.5,248.83,153.5L248.83,153.5z"/>
</g>
<polyline class="st2" points="311.33,225.33 311.33,330 248.83,310.55 186.33,330 186.33,225.33 "/>
</svg>
