<?xml version="1.0" encoding="utf-8"?>
<!-- Generator: Adobe Illustrator 26.0.0, SVG Export Plug-In . SVG Version: 6.00 Build 0)  -->
<svg version="1.1" id="Capa_1" xmlns="http://www.w3.org/2000/svg" xmlns:xlink="http://www.w3.org/1999/xlink" x="0px" y="0px"
	 viewBox="0 0 500 500" style="enable-background:new 0 0 500 500;" xml:space="preserve">
<style type="text/css">
	.st0{fill:#60C2E5;}
	.st1{fill:#FFFFFF;}
</style>
<g>
	<rect x="135.68" y="119.06" class="st0" width="270.8" height="280.94"/>
	<polygon class="st1" points="325.99,112 113.85,112 113.85,382.8 384.65,382.8 384.65,142.37 325.99,142.37 	"/>
	<g>
		<g>
			<path class="st0" d="M242.47,350.72c-2.53-0.88-5.22-0.9-7.82-1.44c-16.85-3.51-30.8-11.85-41.98-24.9
				c-0.81-0.95-0.97-1.45,0.17-2.29c2.27-1.66,4.45-3.46,6.59-5.29c0.86-0.73,1.27-0.52,1.91,0.24
				c9.83,11.64,22.29,18.76,37.26,21.49c3.51,0.64,7.08,0.86,10.65,0.97c0,3.74,0,7.48-0.01,11.22
				C246.98,350.72,244.72,350.72,242.47,350.72z"/>
		</g>
		<g>
			<path class="st0" d="M249.24,350.72c0-3.74,0-7.48,0.01-11.22c10.09-0.19,19.7-2.35,28.67-7.04c0.94-0.49,1.29-0.18,1.71,0.6
				c1.27,2.43,2.53,4.89,3.93,7.24c0.7,1.18,0.65,1.7-0.66,2.35c-8.37,4.16-17.17,6.79-26.48,7.7c-0.4,0.04-0.9-0.15-1.17,0.36
				C253.25,350.72,251.24,350.72,249.24,350.72z"/>
		</g>
		<g>
			<path class="st0" d="M249.24,184.5c17.39-0.67,35.15,10.59,42.97,27.22c3.09,6.57,4.58,13.47,4.52,20.73
				c-0.02,2.76-0.15,5.53,0.13,8.26c0.73,7.2,6.09,11.97,13.42,12.09c3.7,0.06,7.4,0.06,11.09-0.01c1.25-0.03,1.78,0.23,1.72,1.62
				c-0.11,2.75-0.03,5.51-0.04,8.27c0,0.66,0.18,1.45-0.94,1.42c-5.57-0.16-11.19,0.58-16.7-0.49
				c-11.86-2.3-19.86-12.19-19.99-24.31c-0.05-4.88,0.33-9.77-0.71-14.61c-3.58-16.71-17.61-28.43-34.73-28.95
				c-0.25-0.01-0.5-0.05-0.75-0.07C249.24,191.95,249.24,188.23,249.24,184.5z"/>
		</g>
		<g>
			<path class="st0" d="M249.24,184.5c0,3.72,0,7.44,0,11.16c-13.06,0.45-23.36,5.95-30.57,16.91c-3.7,5.62-5.5,11.87-5.63,18.62
				c-0.09,4.44,0.38,8.9-0.56,13.3c-2.44,11.4-12.01,19.34-23.7,19.58c-3.95,0.08-7.9-0.02-11.84,0.04
				c-1.09,0.01-1.58-0.23-1.54-1.44c0.08-2.82,0.09-5.64,0-8.46c-0.04-1.23,0.46-1.44,1.54-1.43c3.7,0.05,7.4,0.06,11.09,0.01
				c8.08-0.1,13.61-5.7,13.74-13.79c0.07-4.38-0.2-8.76,0.38-13.14c2.61-19.7,16.96-35.63,36.32-40.19
				C241.99,184.86,245.58,184.33,249.24,184.5z"/>
		</g>
		<g>
			<path class="st0" d="M175.42,231.49c0.51-22.37,9.02-41.01,25.93-55.75c1.98-1.73,2-1.71,3.58,0.28c1.48,1.86,2.9,3.78,4.46,5.57
				c0.84,0.97,0.84,1.53-0.19,2.37c-7.68,6.32-13.47,14.08-17.43,23.19c-3.86,8.88-5.34,18.2-5.08,27.84
				c0.09,3.32,0.01,3.32-3.35,3.32c-2.19,0-4.39-0.05-6.58,0.02c-1.1,0.04-1.4-0.37-1.36-1.41
				C175.47,235.13,175.42,233.31,175.42,231.49z"/>
		</g>
		<g>
			<path class="st0" d="M249.24,313.16c12.45-0.42,22.47-5.48,29.73-15.68c4.02-5.65,6.17-12,6.39-18.94
				c0.04-1.3,0.4-1.72,1.71-1.68c2.63,0.1,5.27,0.11,7.9,0c1.4-0.06,1.81,0.33,1.74,1.76c-0.73,14.47-6.71,26.31-17.94,35.38
				c-8.57,6.92-18.47,10.37-29.53,10.32C249.24,320.6,249.24,316.88,249.24,313.16z"/>
		</g>
		<g>
			<path class="st0" d="M249.24,313.16c0,3.72,0,7.44,0,11.16c-18.86-0.44-32.84-9.04-42.04-25.39c-3.52-6.25-5.19-13.11-5.45-20.3
				c-0.05-1.43,0.34-1.83,1.75-1.77c2.63,0.11,5.27,0.1,7.9,0c1.33-0.05,1.65,0.4,1.71,1.69c0.68,15.77,11.64,29.34,26.85,33.34
				C243,312.7,246.11,313.04,249.24,313.16z"/>
		</g>
		<g>
			<path class="st0" d="M323.03,280.32c-1.39,21.6-10.2,39.48-26.74,53.51c-0.97,0.83-1.46,0.72-2.18-0.26
				c-1.6-2.16-3.24-4.31-5.02-6.32c-1.01-1.13-0.67-1.65,0.32-2.49c10.85-9.14,17.84-20.64,20.93-34.5
				c0.86-3.86,1.42-7.77,1.36-11.73c-0.02-1.33,0.43-1.71,1.72-1.66c2.5,0.09,5.02,0.14,7.52-0.01c1.72-0.1,2.41,0.42,2.1,2.15
				C322.97,279.43,323.03,279.88,323.03,280.32z"/>
		</g>
		<g>
			<path class="st0" d="M249.24,158.17c17.02-0.02,32.2,5.31,45.63,15.71c3.98,3.08,7.49,6.64,10.83,10.4
				c1.08,1.22,0.9,1.8-0.32,2.69c-2.08,1.5-4.1,3.1-6.01,4.82c-1.09,0.98-1.59,0.77-2.46-0.26c-8.11-9.58-18.21-16.12-30.25-19.67
				c-5.68-1.67-11.51-2.35-17.42-2.52C249.24,165.61,249.24,161.89,249.24,158.17z"/>
		</g>
		<g>
			<path class="st0" d="M323.06,231.76c0,1.63-0.08,3.26,0.02,4.89c0.08,1.26-0.24,1.77-1.62,1.71c-2.69-0.11-5.39-0.11-8.08,0
				c-1.38,0.05-1.66-0.47-1.63-1.73c0.14-6.21-0.06-12.39-1.49-18.48c-1.22-5.21-2.95-10.22-5.48-14.92
				c-0.67-1.25-0.36-1.66,0.72-2.21c2.39-1.23,4.78-2.48,7.07-3.89c1.19-0.73,1.62-0.42,2.19,0.69
				C320.23,208.48,323.03,219.78,323.06,231.76z"/>
		</g>
		<g>
			<path class="st0" d="M249.24,210.84c10.94-0.24,20.7,8.85,21.07,19.76c0.18,5.38,0.04,10.77,0.11,16.15
				c0.01,1.07-0.32,1.4-1.38,1.38c-2.75-0.06-5.51-0.08-8.26,0.01c-1.3,0.04-1.72-0.34-1.69-1.67c0.08-4.51,0.04-9.02,0.03-13.53
				c-0.02-6.49-3.45-10.29-9.86-10.94C249.24,218.28,249.24,214.56,249.24,210.84z"/>
		</g>
		<g>
			<path class="st0" d="M249.24,286.83c6.42-0.66,9.85-4.45,9.86-10.94c0.01-4.51,0.05-9.02-0.03-13.52
				c-0.02-1.33,0.4-1.71,1.69-1.67c2.75,0.09,5.51,0.03,8.26,0.03c0.69,0,1.4-0.12,1.36,0.98c-0.23,6.5,0.67,13.06-0.49,19.49
				c-1.76,9.73-11.01,17.1-20.67,16.8C249.24,294.27,249.24,290.55,249.24,286.83z"/>
		</g>
		<g>
			<path class="st0" d="M249.24,210.84c0,3.72,0,7.44,0,11.16c-6.43,0.64-9.86,4.44-9.87,10.93c-0.01,4.57-0.04,9.14,0.02,13.71
				c0.01,1.16-0.35,1.51-1.5,1.49c-2.82-0.07-5.64-0.02-8.45-0.02c-0.7,0-1.4,0.1-1.37-0.99c0.22-6.5-0.67-13.06,0.49-19.49
				C230.32,217.89,239.46,210.62,249.24,210.84z"/>
		</g>
		<g>
			<path class="st0" d="M249.24,286.83c0,3.72,0,7.44,0,11.16c-10.93,0.23-20.72-8.87-21.08-19.76c-0.18-5.38-0.04-10.77-0.1-16.15
				c-0.01-1.06,0.32-1.41,1.38-1.38c2.82,0.06,5.64,0.07,8.45,0c1.14-0.03,1.51,0.33,1.5,1.48c-0.06,4.57-0.03,9.14-0.02,13.71
				C239.39,282.39,242.81,286.17,249.24,286.83z"/>
		</g>
		<g>
			<path class="st0" d="M175.46,279.61c-0.08-2.71-0.08-2.71,3.29-2.71c2.26,0,4.51,0.03,6.76-0.01c0.88-0.02,1.2,0.29,1.21,1.19
				c0.12,9.94,2.59,19.29,7.22,28.07c0.34,0.64,0.28,0.97-0.37,1.32c-2.75,1.48-5.51,2.97-8.21,4.54c-1,0.58-1.18-0.11-1.49-0.7
				c-3.81-7.26-6.36-14.94-7.62-23.04C175.86,285.6,175.53,282.93,175.46,279.61z"/>
		</g>
		<g>
			<path class="st0" d="M249.24,158.17c0,3.72,0,7.44,0,11.16c-10.09,0.19-19.71,2.34-28.69,7.05c-0.76,0.4-1.2,0.33-1.62-0.48
				c-1.36-2.6-2.75-5.2-4.21-7.74c-0.54-0.94-0.34-1.33,0.58-1.81c6.04-3.12,12.39-5.35,19.03-6.71
				C239.25,158.63,244.21,158.01,249.24,158.17z"/>
		</g>
	</g>
</g>
</svg>
