<?xml version="1.0" encoding="utf-8"?>
<!-- Generator: Adobe Illustrator 26.0.0, SVG Export Plug-In . SVG Version: 6.00 Build 0)  -->
<svg version="1.1" id="Capa_1" xmlns="http://www.w3.org/2000/svg" xmlns:xlink="http://www.w3.org/1999/xlink" x="0px" y="0px"
	 viewBox="0 0 500 500" style="enable-background:new 0 0 500 500;" xml:space="preserve">
<style type="text/css">
	.st0{fill:#60C2E5;}
	.st1{fill:#FFFFFF;}
</style>
<rect x="135.68" y="119.06" class="st0" width="270.8" height="280.94"/>
<polygon class="st1" points="325.99,112 113.85,112 113.85,382.8 384.65,382.8 384.65,142.37 325.99,142.37 "/>
<g>
	<path class="st0" d="M324.76,248.35c0,23.99,0.02,47.98-0.01,71.96c-0.01,10.76-6.76,19.36-17.06,21.89
		c-1.85,0.45-3.74,0.6-5.65,0.6c-35.19-0.01-70.39,0.01-105.58-0.01c-13.12-0.01-22.71-9.57-22.71-22.67
		c-0.02-47.78-0.01-95.56,0-143.34c0-13.22,9.56-22.76,22.81-22.77c35.13-0.01,70.25-0.01,105.38,0
		c13.26,0.01,22.8,9.52,22.81,22.76C324.77,200.63,324.76,224.49,324.76,248.35z M180.03,248.29c0,23.72,0,47.45,0,71.17
		c0,10.48,6.55,17.04,17.02,17.04c34.79,0,69.59,0,104.38,0c10.49,0,17.03-6.54,17.03-17.03c0-47.38,0-94.76,0-142.14
		c0-10.5-6.53-17.03-17.02-17.03c-34.79,0-69.59,0-104.38,0c-10.48,0-17.02,6.55-17.03,17.02
		C180.03,200.98,180.03,224.64,180.03,248.29z"/>
	<path class="st0" d="M249.25,166.59c17.43,0,34.87,0,52.3,0c6.84,0,10.62,3.74,10.62,10.52c0,7.73,0.01,15.47,0,23.2
		c-0.01,6.43-3.86,10.32-10.23,10.32c-35.13,0.01-70.26,0.01-105.39,0c-6.28,0-10.22-3.9-10.23-10.13c-0.01-7.93-0.01-15.86,0-23.79
		c0.01-6.23,3.94-10.12,10.22-10.12C214.12,166.59,231.68,166.59,249.25,166.59z M249.23,172.89c-17.49,0-34.98,0-52.47,0
		c-3.09,0-4.13,1.03-4.13,4.11c-0.01,7.73-0.01,15.46,0,23.19c0,3.11,1.02,4.16,4.08,4.16c35.05,0,70.09,0,105.14,0
		c2.95,0,4.03-1.07,4.03-4.01c0.01-7.67,0-15.33,0-23c0-3.51-0.93-4.45-4.38-4.45C284.08,172.88,266.65,172.89,249.23,172.89z"/>
	<path class="st0" d="M274.42,295.52c0-8.13-0.01-16.26,0-24.38c0.01-6.24,3.93-10.14,10.2-10.15c5.9-0.01,11.8-0.02,17.7,0
		c5.85,0.02,9.84,4.02,9.85,9.9c0.02,16.45,0.02,32.9,0,49.35c-0.01,5.99-3.99,9.94-10,9.96c-5.96,0.02-11.93,0.02-17.89,0
		c-5.85-0.02-9.84-4.03-9.85-9.91C274.4,312.04,274.42,303.78,274.42,295.52z M305.88,295.6c0-8.12,0.01-16.24,0-24.36
		c0-2.85-1.08-3.95-3.88-3.96c-5.76-0.01-11.52-0.01-17.29,0c-2.94,0.01-3.99,1.07-4,4.04c-0.01,16.18-0.01,32.35,0,48.53
		c0,2.97,1.06,4.06,3.98,4.06c5.7,0.01,11.39,0.01,17.09,0c3.06,0,4.1-1.05,4.1-4.14C305.88,311.71,305.88,303.66,305.88,295.6z"/>
	<path class="st0" d="M205.26,223.23c3.08,0,6.16-0.03,9.24,0.01c5.49,0.06,9.52,4.08,9.57,9.58c0.04,4.13,0.05,8.26,0,12.39
		c-0.07,5.37-4.11,9.43-9.48,9.47c-6.29,0.05-12.58,0.06-18.87,0c-5.25-0.05-9.3-4.13-9.37-9.38c-0.06-4.26-0.06-8.52,0-12.78
		c0.08-5.13,4.14-9.18,9.28-9.27C198.83,223.18,202.05,223.23,205.26,223.23z M205.2,248.4c3.01,0,6.02,0.03,9.03-0.01
		c2.32-0.03,3.52-1.2,3.54-3.5c0.04-3.93,0.03-7.85,0-11.78c-0.02-2.42-1.2-3.58-3.65-3.59c-5.95-0.02-11.91-0.02-17.86,0
		c-2.45,0.01-3.62,1.17-3.64,3.59c-0.03,3.86-0.03,7.72,0,11.58c0.02,2.54,1.18,3.67,3.75,3.69
		C199.32,248.42,202.26,248.4,205.2,248.4z"/>
	<path class="st0" d="M249.22,254.69c-3.08,0-6.16,0.03-9.24,0c-5.5-0.06-9.54-4.08-9.59-9.57c-0.04-4.13-0.04-8.26,0-12.39
		c0.06-5.37,4.1-9.45,9.46-9.49c6.29-0.05,12.58-0.05,18.87,0c5.26,0.05,9.32,4.11,9.39,9.36c0.06,4.26,0.07,8.52,0,12.78
		c-0.08,5.15-4.12,9.19-9.26,9.29C255.64,254.74,252.43,254.69,249.22,254.69z M249.24,248.4c3.01,0,6.02,0.03,9.03-0.01
		c2.32-0.03,3.53-1.2,3.56-3.48c0.04-3.93,0.03-7.85,0-11.78c-0.02-2.42-1.2-3.59-3.64-3.6c-5.95-0.02-11.91-0.02-17.86,0
		c-2.46,0.01-3.63,1.16-3.65,3.58c-0.03,3.86-0.03,7.72,0,11.58c0.02,2.55,1.17,3.68,3.73,3.7
		C243.35,248.42,246.29,248.4,249.24,248.4z"/>
	<path class="st0" d="M293.3,254.69c-3.08,0-6.16,0.03-9.24-0.01c-5.51-0.06-9.57-4.06-9.63-9.53c-0.04-4.13-0.04-8.26,0-12.39
		c0.06-5.47,4.12-9.5,9.63-9.53c6.16-0.04,12.32-0.04,18.48,0c5.51,0.03,9.57,4.05,9.63,9.53c0.05,4.13,0.05,8.26,0,12.39
		c-0.06,5.48-4.11,9.48-9.63,9.53C299.46,254.72,296.38,254.69,293.3,254.69z M293.3,248.4c3.01,0,6.02,0.03,9.03-0.01
		c2.31-0.03,3.52-1.21,3.54-3.5c0.04-3.93,0.03-7.85,0-11.78c-0.02-2.41-1.2-3.57-3.65-3.58c-5.95-0.02-11.91-0.02-17.86,0
		c-2.44,0.01-3.62,1.17-3.64,3.6c-0.03,3.86-0.03,7.72,0,11.58c0.02,2.54,1.18,3.67,3.75,3.69
		C287.41,248.42,290.36,248.4,293.3,248.4z"/>
	<path class="st0" d="M205.19,260.99c3.08,0,6.16-0.02,9.24,0.01c5.52,0.05,9.58,4.04,9.64,9.52c0.05,4.13,0.04,8.26,0,12.39
		c-0.06,5.48-4.1,9.51-9.61,9.54c-6.16,0.04-12.32,0.04-18.48,0c-5.6-0.03-9.6-4.09-9.64-9.72c-0.03-4.06-0.04-8.13,0-12.19
		c0.06-5.48,4.11-9.49,9.61-9.54C199.03,260.96,202.11,260.99,205.19,260.99z M205.15,286.16c3.01,0,6.02,0.02,9.03-0.01
		c2.42-0.03,3.59-1.2,3.61-3.63c0.03-3.86,0.03-7.72,0-11.58c-0.02-2.45-1.18-3.64-3.59-3.65c-5.95-0.03-11.91-0.02-17.86,0
		c-2.55,0.01-3.69,1.16-3.7,3.73c-0.02,3.79-0.02,7.59,0,11.39c0.01,2.57,1.15,3.73,3.69,3.75
		C199.26,286.18,202.2,286.16,205.15,286.16z"/>
	<path class="st0" d="M249.2,292.45c-3.08,0-6.16,0.03-9.24,0c-5.49-0.06-9.53-4.09-9.58-9.58c-0.04-4.13-0.04-8.26,0-12.39
		c0.06-5.37,4.11-9.44,9.48-9.48c6.29-0.05,12.58-0.06,18.87,0c5.25,0.05,9.3,4.12,9.38,9.37c0.06,4.26,0.07,8.52,0,12.78
		c-0.09,5.15-4.13,9.18-9.27,9.28C255.63,292.5,252.41,292.44,249.2,292.45z M249.07,286.16c3.01,0,6.02,0.02,9.03-0.01
		c2.56-0.02,3.71-1.16,3.73-3.71c0.02-3.79,0.02-7.59,0-11.39c-0.01-2.58-1.14-3.76-3.67-3.77c-5.95-0.02-11.91-0.02-17.86,0
		c-2.44,0.01-3.61,1.18-3.62,3.61c-0.03,3.86-0.03,7.72,0,11.58c0.02,2.53,1.18,3.66,3.76,3.68
		C243.31,286.17,246.19,286.16,249.07,286.16z"/>
	<path class="st0" d="M205.25,330.2c-3.15,0-6.29,0.04-9.44-0.01c-5.37-0.08-9.42-4.12-9.48-9.48c-0.05-4.19-0.05-8.39,0-12.58
		c0.07-5.25,4.13-9.32,9.38-9.37c6.29-0.06,12.58-0.05,18.87,0c5.36,0.04,9.41,4.11,9.48,9.48c0.05,4.19,0.06,8.39,0,12.58
		c-0.07,5.26-4.12,9.29-9.38,9.38C211.54,330.25,208.4,330.2,205.25,330.2z M205.4,305.04c-3.14,0-6.28-0.04-9.42,0.01
		c-2.1,0.03-3.31,1.22-3.34,3.29c-0.05,4.06-0.05,8.11,0,12.17c0.02,2.18,1.24,3.38,3.44,3.39c6.08,0.03,12.17,0.03,18.25,0
		c2.2-0.01,3.42-1.21,3.45-3.39c0.05-3.99,0.04-7.98,0-11.97c-0.02-2.3-1.22-3.47-3.54-3.49
		C211.29,305.01,208.34,305.03,205.4,305.04z"/>
	<path class="st0" d="M249.33,298.74c3.01,0,6.03-0.02,9.04,0c5.63,0.04,9.69,4.03,9.74,9.62c0.04,4.06,0.04,8.13,0,12.19
		c-0.05,5.61-4.08,9.61-9.71,9.65c-6.09,0.03-12.19,0.03-18.28,0c-5.72-0.03-9.71-4.06-9.74-9.81c-0.02-4-0.03-8,0-11.99
		c0.05-5.6,4.08-9.6,9.71-9.64C243.17,298.72,246.25,298.74,249.33,298.74z M249.25,323.91c3.01,0,6.02,0.03,9.03-0.01
		c2.31-0.03,3.52-1.21,3.54-3.5c0.04-3.93,0.03-7.85,0-11.78c-0.02-2.41-1.2-3.58-3.65-3.58c-5.95-0.02-11.91-0.02-17.86,0
		c-2.45,0.01-3.62,1.17-3.64,3.6c-0.03,3.86-0.03,7.72,0,11.58c0.02,2.54,1.18,3.67,3.75,3.69
		C243.37,323.93,246.31,323.91,249.25,323.91z"/>
	<path class="st0" d="M283.86,188.3c0.1-1.54-0.19-3.44,0.34-5.32c1.26-4.46,5.55-7.42,10.14-6.91c4.57,0.51,8.2,4.36,8.37,8.97
		c0.08,2.36,0.08,4.72,0,7.08c-0.17,5.09-4.4,9.11-9.48,9.08c-5.07-0.03-9.21-4.1-9.36-9.21
		C283.83,190.88,283.86,189.76,283.86,188.3z M296.44,188.62c0-1.04,0.05-2.09-0.01-3.13c-0.1-1.86-1.37-3.12-3.08-3.15
		c-1.71-0.03-3.1,1.22-3.17,3.05c-0.09,2.15-0.08,4.31,0,6.46c0.07,1.83,1.45,3.08,3.16,3.06c1.7-0.03,2.98-1.29,3.09-3.15
		C296.49,190.71,296.44,189.66,296.44,188.62z"/>
</g>
</svg>
