<?xml version="1.0" encoding="utf-8"?>
<!-- Generator: Adobe Illustrator 26.0.0, SVG Export Plug-In . SVG Version: 6.00 Build 0)  -->
<svg version="1.1" id="Capa_1" xmlns="http://www.w3.org/2000/svg" xmlns:xlink="http://www.w3.org/1999/xlink" x="0px" y="0px"
	 viewBox="0 0 500 500" style="enable-background:new 0 0 500 500;" xml:space="preserve">
<style type="text/css">
	.st0{fill:#CAD1EA;}
	.st1{fill:#051C2C;}
</style>
<g>
	<path class="st0" d="M72.13,429.94c30.68-0.12,61.36-0.13,92.04,0.01c3.35,0.02,4.12-0.83,4.11-4.15
		c-0.11-64.69-0.11-129.37,0-194.06c0.01-3.41-0.65-4.51-4.31-4.49c-30.68,0.17-61.36,0.14-92.04,0.02
		c-2.97-0.01-3.74,0.66-3.72,3.69c0.14,24.59,0.08,49.18,0.07,73.77c0,1.2,0.13,2.44-0.11,3.6c-0.69,3.28-2.77,5.28-6.15,5.13
		c-1.73-0.08-3.12-0.67-4.1-1.69v19.31c0.92-0.97,2.21-1.56,3.89-1.67c3.45-0.24,5.54,1.62,6.32,4.87c0.3,1.27,0.15,2.66,0.15,3.99
		c0.01,29.27,0.06,58.54-0.08,87.81C68.2,429.28,69.08,429.95,72.13,429.94z M82,265.05c0.04-6.79,3.29-10.22,9.96-10.25
		c17.85-0.07,35.69-0.07,53.54,0c6.27,0.03,9.67,3.36,9.77,9.62c0.14,8.67,0.14,17.35,0,26.02c-0.1,6.26-3.55,9.59-9.75,9.64
		c-9.06,0.07-18.11,0.02-27.17,0.02c-8.66,0-17.31,0.04-25.97-0.01c-7-0.04-10.34-3.33-10.38-10.23
		C81.96,281.6,81.96,273.32,82,265.05z M82.01,324.78c0.05-6.26,3.41-9.8,9.56-9.83c17.98-0.08,35.96-0.08,53.95-0.01
		c6.26,0.02,9.65,3.35,9.76,9.63c0.15,8.54,0.12,17.08,0.01,25.62c-0.08,6.72-3.47,10.01-10.17,10.04
		c-8.92,0.05-17.85,0.01-26.77,0.01c-8.79,0-17.58,0.05-26.37-0.02c-6.44-0.05-9.91-3.46-9.97-9.84
		C81.94,341.86,81.94,333.32,82.01,324.78z"/>
	<path class="st1" d="M454.43,224.27c-2.52,3.49-5.66,5.74-10.24,5.19c-1.45-0.18-1.83,0.67-1.74,1.95
		c0.06,0.93,0.01,1.87,0.01,2.81c0,65.76,0,131.51,0,197.27c0,9.31-3.2,12.52-12.46,12.52c-120.32,0-240.63,0-360.95,0
		c-9.22,0-12.44-3.25-12.44-12.54c0-30.47,0-60.94,0-91.42c0-1.07-0.08-2.15,0.06-3.2c0.42-3.19,2.26-5.1,5.48-5.33
		c3.45-0.24,5.54,1.62,6.32,4.87c0.3,1.27,0.15,2.66,0.15,3.99c0.01,29.27,0.06,58.54-0.08,87.81c-0.02,3.2,0.87,3.87,3.92,3.86
		c30.68-0.12,61.36-0.13,92.04,0.01c3.35,0.02,4.12-0.83,4.11-4.15c-0.11-64.69-0.11-129.37,0-194.06c0.01-3.41-0.65-4.51-4.31-4.49
		c-30.68,0.17-61.36,0.14-92.04,0.02c-2.97-0.01-3.74,0.66-3.72,3.69c0.14,24.59,0.08,49.18,0.07,73.77c0,1.2,0.13,2.44-0.11,3.6
		c-0.69,3.28-2.77,5.28-6.15,5.13c-3.34-0.15-5.42-2.17-5.68-5.59c-0.19-2.52-0.06-5.08-0.06-7.61c0-23.12-0.04-46.24,0.06-69.36
		c0.01-2.67-0.54-3.61-3.42-3.66c-5.86-0.1-8.56-3.2-8.6-9.2c-0.04-6.15-0.03-12.3,0-18.44c0.03-6.55,2.99-9.49,9.58-9.5
		c36.68-0.01,73.36-0.06,110.04,0.08c3.49,0.01,4.68-0.75,4.34-4.34c-0.35-3.71-0.17-7.48-0.04-11.22c0.06-1.93-0.63-2.44-2.51-2.56
		c-12.79-0.8-13.69-1.8-13.69-14.52c0-5.88-0.04-11.76,0.01-17.64c0.06-7.29,3.23-10.47,10.55-10.48
		c25.48-0.04,50.95-0.08,76.43,0.06c3.23,0.02,4.25-0.64,4.22-4.08c-0.17-23.39-0.09-46.78-0.08-70.16c0-1.47-0.04-2.96,0.2-4.39
		c0.53-3.2,2.58-5,5.77-5.02c3.18-0.02,5.85,1.76,5.72,4.92c-0.2,4.8,2.24,4.75,5.79,4.7c13.47-0.17,26.94-0.08,40.42-0.06
		c8.34,0.01,12.48,4.11,12.53,12.55c0.07,10.42,0.08,20.85,0,31.27c-0.06,8.56-4.02,12.48-12.55,12.5
		c-13.87,0.04-27.75,0.17-41.61-0.09c-3.74-0.07-4.58,1.14-4.29,4.52c0.27,3.18,0.28,6.43,0,9.61c-0.27,3.06,0.79,3.75,3.76,3.74
		c25.21-0.12,50.42-0.08,75.63-0.05c1.72,0,3.49,0.04,5.16,0.42c3.76,0.87,6.32,3.34,6.43,7.19c0.26,9.08,0.3,18.17,0.02,27.25
		c-0.15,4.86-3.84,7.58-9.4,7.82c-6.52,0.27-6.59,0.28-6.49,6.89c0.05,3.57-1.52,8.24,0.62,10.42c2.15,2.19,6.82,0.65,10.38,0.65
		c34.01,0.05,68.03,0.11,102.04-0.06c4.92-0.02,8.47,1.41,10.82,5.71C454.43,206.63,454.43,215.45,454.43,224.27z M180.55,303.2
		c0,38.75-0.02,77.51,0.03,116.26c0.01,4.08-1.79,9.7,0.75,11.83c2.46,2.06,7.87,0.51,11.97,0.71c2.01,0.1,2.81-0.4,2.72-2.6
		c-0.18-4.13-0.13-8.29-0.03-12.43c0.14-5.46,3.05-9.7,8.2-10.98c2.67-0.67,3.15-1.73,3.13-4.24c-0.11-21.78-0.07-43.56-0.06-65.35
		c0-9.43,3.61-13.04,13.06-13.05c19.47-0.01,38.94-0.01,58.42,0c9.44,0.01,13.03,3.61,13.04,13.07c0.01,21.65,0.03,43.3-0.03,64.95
		c-0.01,2.43,0.11,3.94,3.14,4.64c5.13,1.2,8.02,5.5,8.17,10.99c0.11,3.87,0.15,7.76-0.02,11.62c-0.11,2.42,0.3,3.66,3.15,3.4
		c3.04-0.28,6.15-0.27,9.19,0c2.79,0.25,3.19-0.9,3.19-3.37c-0.06-83.66-0.06-167.31,0.01-250.97c0-2.74-0.6-3.58-3.47-3.56
		c-16.8,0.15-33.61,0.08-50.41,0.06c-1.59,0-3.24,0.01-4.76-0.39c-2.97-0.79-4.33-2.98-4.18-6.01c0.15-2.87,1.69-4.77,4.51-5.35
		c1.42-0.29,2.92-0.26,4.38-0.27c22.01-0.01,44.01-0.06,66.02,0.05c2.98,0.02,4.36-0.53,4.04-3.87c-0.31-3.31-0.32-6.7,0-10.01
		c0.37-3.75-0.65-4.93-4.68-4.91c-35.21,0.18-70.42,0.11-105.63,0.11c-18.54,0-37.08,0.08-55.62-0.08c-3.36-0.03-4.88,0.55-4.48,4.3
		c0.36,3.3,0.3,6.69,0.01,10.01c-0.29,3.39,0.56,4.53,4.27,4.49c21.07-0.21,42.14-0.11,63.22-0.1c1.33,0,2.68-0.03,3.99,0.18
		c3.21,0.52,4.95,2.51,4.99,5.75c0.04,3.25-1.68,5.27-4.86,5.87c-1.3,0.25-2.65,0.23-3.98,0.23c-15.87,0.01-31.74,0.11-47.61-0.08
		c-3.26-0.04-3.86,0.98-3.85,3.99C180.58,219.81,180.55,261.5,180.55,303.2z M430.44,330.91c0-32.6-0.02-65.2,0.05-97.8
		c0.01-2.5-0.17-3.76-3.29-3.75c-31.07,0.13-62.14,0.11-93.21,0.01c-2.86-0.01-3.51,0.86-3.5,3.61c0.07,65.2,0.08,130.4-0.01,195.6
		c0,2.92,0.91,3.44,3.59,3.43c30.94-0.09,61.87-0.11,92.81,0.02c3.07,0.01,3.65-0.82,3.64-3.74
		C430.4,395.84,430.44,363.37,430.44,330.91z M279.77,370.58c0-10.68-0.07-21.36,0.05-32.04c0.03-2.39-0.52-3.28-3.06-3.21
		c-6.12,0.18-12.26,0.15-18.39,0.01c-2.31-0.06-2.91,0.72-2.9,2.96c0.08,21.36,0.07,42.73,0.01,64.09
		c-0.01,2.15,0.45,3.08,2.85,3.02c6.13-0.17,12.26-0.18,18.39,0c2.53,0.08,3.13-0.77,3.1-3.19
		C279.7,391.68,279.77,381.13,279.77,370.58z M243.5,370.64c0-10.68-0.02-21.35,0.01-32.03c0.01-1.83,0.15-3.35-2.56-3.27
		c-6.39,0.17-12.78,0.1-19.18,0.02c-1.87-0.02-2.54,0.56-2.54,2.51c0.06,21.62,0.06,43.24-0.01,64.85
		c-0.01,2.19,0.78,2.69,2.79,2.66c5.99-0.1,11.99-0.18,17.98,0.03c2.79,0.1,3.61-0.74,3.57-3.55
		C243.41,391.46,243.5,381.05,243.5,370.64z M278.52,101.77c6.92,0,13.84-0.08,20.76,0.05c2.11,0.04,2.7-0.62,2.68-2.71
		c-0.1-9.07-0.1-18.13,0-27.2c0.02-1.95-0.55-2.46-2.47-2.45c-13.84,0.08-27.68,0.08-41.52,0c-1.89-0.01-2.51,0.44-2.49,2.43
		c0.1,9.07,0.13,18.14-0.01,27.2c-0.04,2.51,1.08,2.74,3.09,2.72C265.21,101.72,271.87,101.77,278.52,101.77z M112.32,217.39
		c15.72,0,31.43,0,47.15,0c9.08,0,8.91,0,9.15-9.12c0.09-3.36-0.82-4.14-4.13-4.13c-32.76,0.13-65.52,0.08-98.29,0.09
		c-3.04,0-7.1-1.04-8.86,0.51c-2.08,1.83-0.26,6.03-0.74,9.14c-0.5,3.28,1.04,3.59,3.78,3.57
		C77.7,217.34,95.01,217.39,112.32,217.39z M386.64,204.23c-15.72,0-31.43,0-47.15,0c-8.99,0-8.82,0-9.05,9.13
		c-0.09,3.44,1.02,4.12,4.24,4.11c32.63-0.12,65.26-0.06,97.89-0.08c3.17,0,7.35,1.02,9.22-0.58c1.99-1.71,0.28-6.04,0.66-9.19
		c0.35-2.88-0.73-3.47-3.48-3.45C421.53,204.29,404.09,204.23,386.64,204.23z M249.98,417.39c-10.39,0-20.78-0.07-31.16,0.04
		c-3.53,0.04-8.24-1.6-10.26,0.76c-1.73,2.02-0.26,6.63-0.64,10.04c-0.38,3.39,1.1,3.8,4,3.79c22.64-0.11,45.28-0.02,67.92-0.1
		c3.67-0.01,8.56,1.65,10.66-0.75c1.8-2.06,0.32-6.86,0.63-10.42c0.27-2.97-0.95-3.44-3.6-3.42
		C275.02,417.47,262.5,417.39,249.98,417.39z"/>
	<path class="st1" d="M118.69,302.21c-8.66,0-17.31,0.04-25.97-0.01c-7-0.04-10.34-3.33-10.38-10.23c-0.05-8.27-0.05-16.55,0-24.82
		c0.04-6.79,3.29-10.22,9.96-10.25c17.85-0.07,35.69-0.07,53.54,0c6.27,0.03,9.67,3.36,9.77,9.62c0.14,8.67,0.14,17.35,0,26.02
		c-0.1,6.26-3.55,9.59-9.75,9.64C136.8,302.26,127.75,302.2,118.69,302.21z M143.35,279.71c0.09,0,0.19,0,0.28,0
		c0-2.67-0.1-5.35,0.03-8.01c0.1-2.01-0.45-2.89-2.64-2.82c-4.53,0.14-9.06,0.11-13.59,0.01c-1.89-0.04-2.61,0.57-2.54,2.52
		c0.13,3.47,0.03,6.94,0.03,10.41c0,8.35,0,8.43,8.21,8.31c3.4-0.05,7.95,1.55,9.88-0.76C144.65,287.42,143.35,283.02,143.35,279.71
		z M112.61,279.51c0.1,0,0.2,0,0.3,0c0-1.6,0-3.19,0-4.79c0-5.81,0-5.84-5.84-5.8c-4.1,0.03-9.64-1.44-11.92,0.64
		c-2.61,2.38-0.73,8.01-0.79,12.22c-0.12,8.38-0.03,8.45,8.01,8.35c3.41-0.04,8.08,1.52,9.87-0.65
		C113.93,287.45,112.61,282.94,112.61,279.51z"/>
	<path class="st1" d="M118.68,362.35c-8.79,0-17.58,0.05-26.37-0.02c-6.44-0.05-9.91-3.46-9.97-9.84c-0.08-8.54-0.07-17.08,0-25.62
		c0.05-6.26,3.41-9.8,9.56-9.83c17.98-0.08,35.96-0.08,53.95-0.01c6.26,0.02,9.65,3.35,9.76,9.63c0.15,8.54,0.12,17.08,0.01,25.62
		c-0.08,6.72-3.47,10.01-10.17,10.04C136.53,362.39,127.61,362.35,118.68,362.35z M143.64,340.67c0-3.28-0.11-5.95,0.03-8.62
		c0.12-2.16-0.42-3.14-2.84-3.04c-4.39,0.18-8.8,0.14-13.19,0.01c-2.06-0.06-2.85,0.58-2.75,2.72c0.15,3.33,0.04,6.67,0.04,10.01
		c0,8.56,0,8.62,8.4,8.53c3.3-0.03,7.56,1.43,9.65-0.59C145.09,347.65,143.31,343.36,143.64,340.67z M112.92,339.73
		c0-2.81-0.09-5.62,0.03-8.42c0.08-1.75-0.52-2.32-2.27-2.29c-4.67,0.1-9.34,0.08-14,0.01c-1.62-0.02-2.4,0.36-2.37,2.21
		c0.1,5.61,0.1,11.23,0,16.84c-0.03,1.78,0.6,2.29,2.3,2.26c4.53-0.09,9.08-0.17,13.6,0.03c2.46,0.11,2.88-0.9,2.75-3.02
		C112.8,344.82,112.92,342.27,112.92,339.73z"/>
	<path class="st0" d="M180.55,303.2c0-41.69,0.03-83.39-0.06-125.08c-0.01-3.02,0.59-4.03,3.85-3.99
		c15.87,0.19,31.74,0.09,47.61,0.08c1.33,0,2.69,0.02,3.98-0.23c3.18-0.6,4.9-2.62,4.86-5.87c-0.04-3.24-1.78-5.23-4.99-5.75
		c-1.3-0.21-2.66-0.18-3.99-0.18c-21.07-0.01-42.15-0.12-63.22,0.1c-3.71,0.04-4.56-1.1-4.27-4.49c0.29-3.32,0.35-6.71-0.01-10.01
		c-0.41-3.74,1.12-4.33,4.48-4.3c18.54,0.16,37.08,0.08,55.62,0.08c35.21,0,70.42,0.08,105.63-0.11c4.03-0.02,5.04,1.16,4.68,4.91
		c-0.32,3.31-0.31,6.7,0,10.01c0.31,3.34-1.06,3.88-4.04,3.87c-22.01-0.12-44.01-0.07-66.02-0.05c-1.46,0-2.96-0.03-4.38,0.27
		c-2.82,0.58-4.36,2.48-4.51,5.35c-0.15,3.03,1.21,5.22,4.18,6.01c1.51,0.4,3.17,0.39,4.76,0.39c16.8,0.03,33.61,0.09,50.41-0.06
		c2.87-0.02,3.47,0.82,3.47,3.56c-0.07,83.66-0.07,167.31-0.01,250.97c0,2.46-0.39,3.62-3.19,3.37c-3.04-0.27-6.15-0.28-9.19,0
		c-2.85,0.27-3.26-0.98-3.15-3.4c0.17-3.87,0.13-7.75,0.02-11.62c-0.15-5.5-3.04-9.79-8.17-10.99c-3.03-0.71-3.15-2.22-3.14-4.64
		c0.06-21.65,0.04-43.3,0.03-64.95c0-9.46-3.6-13.07-13.04-13.07c-19.47-0.01-38.94-0.01-58.42,0c-9.45,0.01-13.06,3.61-13.06,13.05
		c-0.01,21.78-0.05,43.57,0.06,65.35c0.01,2.51-0.46,3.57-3.13,4.24c-5.15,1.29-8.06,5.53-8.2,10.98c-0.1,4.14-0.16,8.29,0.03,12.43
		c0.1,2.2-0.71,2.7-2.72,2.6c-4.1-0.2-9.51,1.35-11.97-0.71c-2.54-2.13-0.75-7.75-0.75-11.83
		C180.53,380.71,180.55,341.95,180.55,303.2z M249.31,290.23c27.69,0.11,50.38-22.51,50.47-50.33
		c0.09-27.69-22.68-50.64-50.26-50.65c-27.39-0.01-50.08,22.67-50.26,50.24C199.09,267.25,221.64,290.11,249.31,290.23z"/>
	<path class="st0" d="M430.44,330.91c0,32.47-0.04,64.93,0.07,97.4c0.01,2.91-0.57,3.75-3.64,3.74
		c-30.94-0.13-61.87-0.11-92.81-0.02c-2.68,0.01-3.6-0.51-3.59-3.43c0.09-65.2,0.09-130.4,0.01-195.6c0-2.75,0.65-3.62,3.5-3.61
		c31.07,0.1,62.14,0.11,93.21-0.01c3.12-0.01,3.3,1.25,3.29,3.75C430.42,265.71,430.44,298.31,430.44,330.91z M379.97,302.2
		c8.79,0,17.58,0.03,26.37-0.01c6.97-0.04,10.33-3.35,10.38-10.24c0.05-8.27,0.05-16.55,0-24.82c-0.04-6.78-3.32-10.21-9.98-10.23
		c-17.71-0.07-35.43-0.06-53.14,0c-6.76,0.02-10.11,3.33-10.18,10.03c-0.09,8.41-0.1,16.82,0,25.22c0.08,6.69,3.48,10,10.18,10.04
		C362.39,302.24,371.18,302.2,379.97,302.2z M380.05,362.35c8.92,0,17.85,0.05,26.77-0.02c6.4-0.05,9.83-3.48,9.89-9.91
		c0.08-8.41,0.06-16.82,0.01-25.22c-0.05-6.71-3.39-10.13-10.06-10.15c-17.72-0.06-35.43-0.06-53.15,0
		c-6.71,0.02-10.03,3.35-10.1,10.11c-0.09,8.27-0.07,16.55-0.01,24.82c0.06,7,3.38,10.33,10.27,10.36
		C362.47,362.38,371.26,362.35,380.05,362.35z"/>
	<path class="st0" d="M279.77,370.58c0,10.55-0.07,21.1,0.05,31.64c0.03,2.42-0.57,3.26-3.1,3.19c-6.12-0.18-12.26-0.17-18.39,0
		c-2.41,0.07-2.86-0.87-2.85-3.02c0.06-21.36,0.07-42.73-0.01-64.09c-0.01-2.25,0.59-3.02,2.9-2.96c6.13,0.15,12.26,0.17,18.39-0.01
		c2.55-0.07,3.09,0.82,3.06,3.21C279.7,349.22,279.77,359.9,279.77,370.58z"/>
	<path class="st0" d="M243.5,370.64c0,10.41-0.1,20.82,0.06,31.22c0.04,2.81-0.77,3.65-3.57,3.55c-5.99-0.21-11.99-0.13-17.98-0.03
		c-2.01,0.03-2.8-0.47-2.79-2.66c0.07-21.62,0.07-43.24,0.01-64.85c-0.01-1.95,0.67-2.54,2.54-2.51c6.39,0.08,12.79,0.15,19.18-0.02
		c2.71-0.07,2.57,1.44,2.56,3.27C243.49,349.29,243.5,359.96,243.5,370.64z"/>
	<path class="st0" d="M278.52,101.77c-6.65,0-13.31-0.05-19.96,0.03c-2.01,0.03-3.13-0.2-3.09-2.72c0.14-9.06,0.12-18.13,0.01-27.2
		c-0.02-1.98,0.6-2.44,2.49-2.43c13.84,0.08,27.68,0.08,41.52,0c1.92-0.01,2.49,0.5,2.47,2.45c-0.1,9.07-0.1,18.13,0,27.2
		c0.02,2.08-0.57,2.74-2.68,2.71C292.36,101.7,285.44,101.77,278.52,101.77z"/>
	<path class="st0" d="M112.32,217.39c-17.31,0-34.63-0.06-51.94,0.06c-2.74,0.02-4.27-0.29-3.78-3.57c0.47-3.11-1.34-7.32,0.74-9.14
		c1.75-1.54,5.82-0.5,8.86-0.51c32.76-0.01,65.52,0.04,98.29-0.09c3.31-0.01,4.22,0.77,4.13,4.13c-0.24,9.12-0.07,9.12-9.15,9.12
		C143.75,217.39,128.04,217.39,112.32,217.39z"/>
	<path class="st0" d="M386.64,204.23c17.45,0,34.89,0.07,52.34-0.07c2.75-0.02,3.83,0.57,3.48,3.45c-0.39,3.15,1.33,7.49-0.66,9.19
		c-1.87,1.6-6.05,0.58-9.22,0.58c-32.63,0.02-65.26-0.03-97.89,0.08c-3.22,0.01-4.33-0.67-4.24-4.11c0.23-9.12,0.06-9.13,9.05-9.13
		C355.21,204.23,370.93,204.23,386.64,204.23z"/>
	<path class="st0" d="M249.98,417.39c12.52,0,25.04,0.07,37.56-0.06c2.65-0.03,3.86,0.44,3.6,3.42c-0.32,3.56,1.17,8.36-0.63,10.42
		c-2.1,2.4-6.99,0.74-10.66,0.75c-22.64,0.07-45.28-0.01-67.92,0.1c-2.9,0.01-4.38-0.4-4-3.79c0.38-3.41-1.09-8.02,0.64-10.04
		c2.02-2.36,6.73-0.72,10.26-0.76C229.2,417.32,239.59,417.39,249.98,417.39z"/>
	<path class="st0" d="M143.35,279.71c0,3.31,1.29,7.71-0.33,9.66c-1.93,2.31-6.48,0.71-9.88,0.76c-8.2,0.12-8.21,0.04-8.21-8.31
		c0-3.47,0.09-6.95-0.03-10.41c-0.07-1.95,0.65-2.56,2.54-2.52c4.53,0.1,9.06,0.13,13.59-0.01c2.19-0.07,2.74,0.82,2.64,2.82
		c-0.13,2.66-0.03,5.34-0.03,8.01C143.54,279.71,143.45,279.71,143.35,279.71z"/>
	<path class="st0" d="M112.61,279.51c0,3.42,1.32,7.93-0.36,9.97c-1.79,2.18-6.46,0.61-9.87,0.65c-8.05,0.1-8.13,0.03-8.01-8.35
		c0.06-4.21-1.82-9.84,0.79-12.22c2.28-2.08,7.82-0.61,11.92-0.64c5.84-0.04,5.84-0.01,5.84,5.8c0,1.6,0,3.19,0,4.79
		C112.82,279.51,112.71,279.51,112.61,279.51z"/>
	<path class="st0" d="M143.64,340.67c-0.33,2.69,1.45,6.99-0.66,9.03c-2.09,2.02-6.35,0.55-9.65,0.59c-8.4,0.09-8.4,0.03-8.4-8.53
		c0-3.34,0.11-6.68-0.04-10.01c-0.1-2.14,0.69-2.77,2.75-2.72c4.39,0.12,8.8,0.17,13.19-0.01c2.42-0.1,2.95,0.89,2.84,3.04
		C143.52,334.71,143.64,337.39,143.64,340.67z"/>
	<path class="st0" d="M112.92,339.73c0,2.54-0.12,5.09,0.04,7.62c0.13,2.12-0.29,3.13-2.75,3.02c-4.53-0.2-9.07-0.12-13.6-0.03
		c-1.7,0.03-2.33-0.48-2.3-2.26c0.1-5.61,0.1-11.23,0-16.84c-0.03-1.85,0.74-2.23,2.37-2.21c4.67,0.07,9.34,0.09,14-0.01
		c1.75-0.04,2.35,0.54,2.27,2.29C112.83,334.12,112.92,336.93,112.92,339.73z"/>
	<path class="st1" d="M249.31,290.23c-27.68-0.11-50.22-22.98-50.05-50.74c0.18-27.57,22.86-50.25,50.26-50.24
		c27.57,0.01,50.34,22.96,50.26,50.65C299.69,267.72,277.01,290.34,249.31,290.23z M249.72,278.18
		c20.98-0.12,38.03-17.34,38.04-38.4c0-21.13-17.55-38.71-38.44-38.49c-20.95,0.22-38.02,17.5-38.04,38.49
		C211.27,260.97,228.62,278.3,249.72,278.18z"/>
	<path class="st1" d="M379.97,302.2c-8.79,0-17.58,0.04-26.37-0.01c-6.71-0.04-10.11-3.35-10.18-10.04c-0.1-8.41-0.09-16.81,0-25.22
		c0.07-6.7,3.42-10.01,10.18-10.03c17.71-0.06,35.43-0.06,53.14,0c6.66,0.03,9.94,3.46,9.98,10.23c0.05,8.27,0.05,16.55,0,24.82
		c-0.04,6.89-3.41,10.2-10.38,10.24C397.55,302.24,388.76,302.2,379.97,302.2z M355.41,279.59c0,2.67,0.09,5.35-0.03,8.01
		c-0.08,1.82,0.39,2.66,2.41,2.61c4.66-0.12,9.33-0.13,13.99,0c2.09,0.06,2.38-0.92,2.36-2.66c-0.08-5.34-0.08-10.68,0-16.02
		c0.03-1.8-0.38-2.69-2.42-2.64c-4.66,0.12-9.33,0.12-13.99,0c-2.09-0.05-2.41,0.96-2.35,2.7
		C355.47,274.24,355.41,276.92,355.41,279.59z M404.72,279.54c0-2.67-0.08-5.35,0.03-8.02c0.07-1.77-0.28-2.7-2.35-2.64
		c-4.66,0.13-9.34,0.15-14-0.01c-2.19-0.07-2.31,1.01-2.29,2.69c0.06,5.34,0.13,10.69-0.03,16.04c-0.07,2.21,0.75,2.67,2.75,2.62
		c4.4-0.13,8.8-0.13,13.2,0c2.03,0.06,2.89-0.47,2.74-2.65C404.58,284.89,404.72,282.21,404.72,279.54z"/>
	<path class="st1" d="M380.05,362.35c-8.79,0-17.58,0.04-26.37-0.01c-6.89-0.04-10.21-3.37-10.27-10.36
		c-0.07-8.27-0.08-16.55,0.01-24.82c0.07-6.76,3.39-10.09,10.1-10.11c17.72-0.05,35.43-0.06,53.15,0
		c6.67,0.02,10.01,3.44,10.06,10.15c0.06,8.41,0.07,16.82-0.01,25.22c-0.06,6.44-3.49,9.87-9.89,9.91
		C397.9,362.4,388.97,362.35,380.05,362.35z M374.25,339.88c-0.05,0-0.09,0-0.14-0.01c0-2.54-0.13-5.08,0.04-7.61
		c0.15-2.32-0.42-3.39-3.03-3.26c-4.25,0.21-8.53,0.16-12.79,0.01c-2.22-0.08-3.11,0.55-2.97,2.91c0.19,3.33,0.05,6.67,0.05,10.01
		c0,8.38,0,8.45,8.18,8.34c3.41-0.05,7.92,1.53,9.91-0.74C375.19,347.59,374.11,343.19,374.25,339.88z M386.13,338.73
		c0,3.28,0.12,5.96-0.04,8.62c-0.13,2.13,0.3,3.13,2.76,3.02c4.39-0.2,8.8-0.15,13.2-0.02c2.06,0.06,2.82-0.52,2.72-2.68
		c-0.17-3.47-0.05-6.95-0.05-10.42c0-8.2,0-8.26-8.35-8.16c-3.29,0.04-7.56-1.46-9.61,0.61
		C384.7,331.76,386.42,336.04,386.13,338.73z"/>
	<path class="st0" d="M249.72,278.18c-21.1,0.12-38.45-17.21-38.44-38.4c0.01-20.99,17.09-38.27,38.04-38.49
		c20.88-0.22,38.44,17.36,38.44,38.49C287.76,260.85,270.7,278.06,249.72,278.18z M243.53,234.25c0,3.74-0.14,7.48,0.04,11.21
		c0.19,4.05,2.33,6.06,6.34,6.15c4.26,0.1,8.53,0.1,12.79-0.01c3.62-0.09,5.92-2.29,6.11-5.53c0.2-3.44-2.05-6.03-5.72-6.41
		c-1.58-0.16-3.21-0.2-4.79-0.02c-2.36,0.26-2.91-0.73-2.83-2.94c0.16-4.26,0.15-8.54,0-12.81c-0.14-4.07-2.61-6.52-6.13-6.42
		c-3.35,0.1-5.63,2.47-5.79,6.36C243.41,227.3,243.52,230.78,243.53,234.25z"/>
	<path class="st0" d="M355.41,279.59c0-2.67,0.07-5.34-0.02-8.01c-0.06-1.74,0.26-2.75,2.35-2.7c4.66,0.12,9.33,0.12,13.99,0
		c2.04-0.05,2.44,0.84,2.42,2.64c-0.08,5.34-0.08,10.68,0,16.02c0.02,1.75-0.27,2.72-2.36,2.66c-4.66-0.13-9.33-0.12-13.99,0
		c-2.02,0.05-2.49-0.79-2.41-2.61C355.49,284.93,355.41,282.26,355.41,279.59z"/>
	<path class="st0" d="M404.72,279.54c0,2.67-0.14,5.36,0.04,8.02c0.15,2.19-0.71,2.71-2.74,2.65c-4.4-0.13-8.8-0.13-13.2,0
		c-2,0.06-2.82-0.41-2.75-2.62c0.16-5.34,0.09-10.69,0.03-16.04c-0.02-1.68,0.1-2.76,2.29-2.69c4.66,0.15,9.34,0.13,14,0.01
		c2.08-0.06,2.43,0.88,2.35,2.64C404.64,274.19,404.72,276.87,404.72,279.54z"/>
	<path class="st0" d="M374.25,339.88c-0.15,3.31,0.94,7.7-0.76,9.65c-1.99,2.28-6.5,0.69-9.91,0.74c-8.18,0.11-8.18,0.04-8.18-8.34
		c0-3.34,0.14-6.68-0.05-10.01c-0.13-2.35,0.76-2.98,2.97-2.91c4.26,0.14,8.54,0.19,12.79-0.01c2.61-0.13,3.18,0.94,3.03,3.26
		c-0.17,2.53-0.04,5.07-0.04,7.61C374.16,339.88,374.21,339.88,374.25,339.88z"/>
	<path class="st0" d="M386.13,338.73c0.3-2.69-1.43-6.97,0.63-9.03c2.06-2.06,6.32-0.57,9.61-0.61c8.35-0.1,8.35-0.03,8.35,8.16
		c0,3.47-0.13,6.96,0.05,10.42c0.11,2.16-0.66,2.74-2.72,2.68c-4.4-0.14-8.81-0.19-13.2,0.02c-2.45,0.11-2.89-0.89-2.76-3.02
		C386.25,344.69,386.13,342.01,386.13,338.73z"/>
	<path class="st1" d="M243.53,234.25c0-3.47-0.12-6.95,0.03-10.41c0.16-3.89,2.44-6.26,5.79-6.36c3.51-0.1,5.99,2.35,6.13,6.42
		c0.15,4.27,0.16,8.55,0,12.81c-0.08,2.21,0.47,3.2,2.83,2.94c1.58-0.18,3.21-0.14,4.79,0.02c3.67,0.38,5.92,2.97,5.72,6.41
		c-0.19,3.24-2.49,5.44-6.11,5.53c-4.26,0.11-8.53,0.1-12.79,0.01c-4.01-0.09-6.15-2.11-6.34-6.15
		C243.39,241.73,243.53,237.98,243.53,234.25z"/>
</g>
</svg>
